{"title":"Turnout.DvdRip.AC3.XviD.VAiN","uid":12657696,"size":1507666845,"categoryP":"video","categoryS":"movies","magnet":"?xt=urn:btih:5630aa6f337a16cab6e2861626f1d49dc2da42e1&amp;dn=Turnout.DvdRip.AC3.XviD.VAiN&amp;tr=udp%3A%2F%2Ftracker.leechers-paradise.org%3A6969&amp;tr=udp%3A%2F%2Fzer0day.ch%3A1337&amp;tr=udp%3A%2F%2Fopen.demonii.com%3A1337&amp;tr=udp%3A%2F%2Ftracker.coppersurfer.tk%3A6969&amp;tr=udp%3A%2F%2Fexodus.desync.com%3A6969","seeders":0,"leechers":0,"uploader":"TvTeam","files":3,"time":1446259293,"description":"------------------------------------------------------------------------\r\n\r  https://www.torrenting.com\r\n\r\nSign up is OPEN - for time being. Come and have fun.\r\n\r\n------------------------------------------------------------------------[IMG]http://i.imgur.com/FJi0aRt.png[/IMG] \r\n\r\n[b]P R E S E N T S . . . .[/b] \r\n\r\nTurnout.DvDrip.AC3.XviD.VAIN\r\n\r\niMDB........ :http://www.imdb.com/title/tt1699520/?ref_=fn_al_tt_1\r\n\r\nPLOT........ :Based on an original screenplay by Director Lee Sales and actors Francis Pope and George Russo, Turnout is set in Hoxton, East London where all 3 grew up. Our story follows George and Sophie, they're saving money to go on their first holiday together, the deposit is paid, and they have two weeks left to pay the outstanding balance of 2,000. Sophie has entrusted George with her holiday savings and is keen to settle the debt with the travel agents. The only trouble is, unbeknown to Sophie, George is flat broke. In a vain attempt to raise cash, George uses Sophie's holiday money to fund an ill judged deal. \r\n\r\n\r\n\r\nT E C H N i C A L . i N F O . . .\r\n\r\nGeneral\r\nComplete name                            : Turnout.DvDRip.AC3.XviD.VAiN.avi\r\nFormat                                   : AVI\r\nFormat/Info                              : Audio Video Interleave\r\nFile size                                : 1.40 GiB\r\nDuration                                 : 1h 33mn\r\nOverall bit rate                         : 2 153 Kbps\r\nWriting application                      : VirtualDubMod 1.5.10.2 (build 2540/release)\r\nWriting library                          : VirtualDubMod build 2540/release\r\n\r\nVideo\r\nID                                       : 0\r\nFormat                                   : MPEG-4 Visual\r\nFormat profile                           : Advanced   \r\nFormat settings, BVOP                    : 1\r\nFormat settings, QPel                    : No\r\nFormat settings, GMC                     : No warppoints\r\nFormat settings, Matrix                  : Default (MPEG)\r\nCodec ID                                 : XVID\r\nCodec ID/Hint                            : XviD\r\nDuration                                 : 1h 33mn\r\nBit rate                                 : 1 696 Kbps\r\nWidth                                    : 720 pixels\r\nHeight                                   : 384 pixels\r\nDisplay aspect ratio                     : 1.85:1\r\nFrame rate                               : 25.000 fps\r\nColor space                              : YUV\r\nChroma subsampling                       : 4:2:0\r\nBit depth                                : 8 bits\r\nScan type                                : Progressive\r\nCompression mode                         : Lossy\r\nBits/(Pixel*Frame)                       : 0.245\r\nStream size                              : 1.11 GiB (79%)\r\nWriting library                          : XviD 1.2.1 (UTC 2008-12-04)\r\n\r\nAudio\r\nID                                       : 1\r\nFormat                                   : AC-3\r\nFormat/Info                              : Audio Coding 3\r\nMode extension                           : CM (complete main)\r\nFormat settings, Endianness              : Big\r\nCodec ID                                 : 2000\r\nDuration                                 : 1h 33mn\r\nBit rate mode                            : Constant\r\nBit rate                                 : 448 Kbps\r\nChannel(s)                               : 6 channels\r\nChannel positions                        : Front: L C R, Side: L R, LFE\r\nSampling rate                            : 48.0 KHz\r\nBit depth                                : 16 bits\r\nCompression mode                         : Lossy\r\nStream size                              : 299 MiB (21%)\r\nAlignment                                : Split accross interleaves\r\nInterleave, duration                     : 40 ms (1.00 video frame)\r\nInterleave, preload duration             : 500 ms\r\n\r\n\r\n\r\n\r\n\r\nE N C O D E R S . N O T E S . . .       \r\n\r\ngot any funny stories, jokes, nakid pix of ya sisters/gf's or just want to reach out to us giz us some treats send to...   \r\n\r\n***DISCLAiMER*** as you can see there were no special friend that passed us some special vobs. what you see here is work put into a source. sum may like others may just hate...VAiN stands behind it's QUALiTY and don't claim to be professional HDTSCAMBDBRiPDVDRiPSCRHQ ENCODERS. just a cpl of fella's nipping at ya mums knickers.....\r\n\r\n\r\n\r\nS C R E E N . S H O T S . . .\r\n\r\n[img]http://i.imgur.com/8RooTVm.png[/img]\r\n\r\n[img]http://i.imgur.com/VoWo0rW.png[/img]\r\n\r\n[img]http://i.imgur.com/ydixkfo.png[/img]\r\n\r\n[img]http://i.imgur.com/tDpBktI.png[/img]\r\n\r\n[img]http://i.imgur.com/ImrUUkS.png[/img]\r\n\r\n[img]http://i.imgur.com/mwrrMxd.png[/img]\r\n\r\n\r\ngot any funny stories, jokes, nakid pix of ya sisters/gf's or just want to reach out to us giz us some treats send to...    ;) \r\n\r\n\r\n\r\nGREETZ:\r\n\r\nHive-CM8 | Rx | REFiLL | JEDI | DREAMER n' LADY | 26k |Unevano | EsX | TOFFEE\r\nGH0ST | ViSiON | Sugarb | MenaceIISociety | STARLETS | GUSH | A.C.A.B. | jamie111 | TED |\r\n\r\nAnd all the release grps that don't hide behind new names, or live in the past n glory of old has been that neva were release grps","torrent":{"xt":"urn:btih:5630aa6f337a16cab6e2861626f1d49dc2da42e1","amp;dn":"Turnout.DvdRip.AC3.XviD.VAiN","amp;tr":["udp%3A%2F%2Ftracker.leechers-paradise.org%3A6969","udp%3A%2F%2Fzer0day.ch%3A1337","udp%3A%2F%2Fopen.demonii.com%3A1337","udp%3A%2F%2Ftracker.coppersurfer.tk%3A6969","udp%3A%2F%2Fexodus.desync.com%3A6969"],"infoHash":"5630aa6f337a16cab6e2861626f1d49dc2da42e1","infoHashBuffer":{"type":"Buffer","data":[86,48,170,111,51,122,22,202,182,226,134,22,38,241,212,157,194,218,66,225]},"announce":[],"urlList":[]}}